<svg version="1" xmlns="http://www.w3.org/2000/svg" width="748" height="748" viewBox="0 0 561.000000 561.000000"><path d="M269 29.6c0 .5.8 2.2 1.8 3.9 3.8 6.3 6.2 19.7 4.3 24-.5 1.1-1.4 4-2.1 6.5-3 11.4-4.7 15.7-7.9 19.4-1.9 2.3-3.8 4-4.2 3.8-.5-.1-.9.7-.9 1.8s-.4 2-1 2c-.5 0-1 .7-1 1.6 0 .9.5 1.2 1.1.8.7-.4 1-.1.7.7-.3.8-1.5 1.3-2.6 1.2-1.6-.2-2.4.6-3.3 3.2-.7 1.9-1.9 3.5-2.6 3.5-.7 0-2.2 1.3-3.5 3-1.2 1.6-2.8 3-3.7 3-.8 0-1.2.3-.8.6.3.4-2.3 3.5-5.8 7-3.6 3.6-7.1 7.7-7.9 9.2-.8 1.5-5.2 6.3-9.8 10.7-5.4 5.2-8.9 9.4-9.9 12-.8 2.3-2.1 4-3.1 4-.8 0-3.1 1.9-5 4.2-2 2.3-3.8 4-4.2 3.8-.3-.3-.4-.2-.2.1.3.3-.9 2.9-2.6 5.7-1.7 2.9-5.1 9.1-7.5 13.9-2.3 4.9-4.7 8.8-5.2 8.8-1 0-3.7 6.4-4.6 10.7-2.6 12.7-2.7 35.5-.2 39.4.8 1.3 2.1 4.4 2.8 6.9 3.9 13.3 13.3 26 27.8 37.5 3.5 2.7 7.1 5.7 8.1 6.7 1 .9 2 1.4 2.2 1.2.5-.5 9.8 2.5 11.3 3.6.6.4 2.5 1.1 4.4 1.5 2.5.5 3 1 2 1.6-.9.6-.2.7 1.9.3 2.3-.5 3.2-.3 3.2.7 0 .9.3 1 1 .3 1.2-1.2 14.1-.7 15.4.6.6.6 1.7 1 2.6 1 1.3 0 1.3-.1 0-1-.8-.5-1-1-.5-1 .6 0 1.6.5 2.2 1.1 1.2 1.2 7.2-.3 10.7-2.7 1-.7 2.5-1 3.3-.7.8.3 2.6-.3 4.1-1.4 3.4-2.5 9.2-5.5 9.2-4.8 0 1.2 5.6-2.5 8.4-5.4 1.7-1.7 3.4-3.1 3.9-3.1 1.3 0 5.7-4.3 5.7-5.7 0-.6 1-2 2.3-3 1.2-1 3.5-4.3 5-7.3 1.6-3 3.5-6.8 4.4-8.5 2.5-4.7 7.2-21 7.9-27.9 1.3-12 .4-29.8-1.7-35.5-.6-1.4-.9-2.6-.8-2.6.6 0-4.4-13.4-6.4-17.2-4.9-9.3-10.7-15-20.2-19.7-9.4-4.8-14.2-5.9-23.7-5.8-10.3.1-25.6 6.8-29.6 13-1.3 2-1.3 2.2.3 1.6 1.5-.6 1.6-.5.4 1.5-.8 1.1-2.8 2.6-4.6 3.2-2.2.7-3.5 2-4.2 4.1-1.4 3.9-1.4 4.1.2 3.2.9-.5.9-.4 0 .6-.6.7-.9 1.9-.6 2.6.3.8.1 1.4-.5 1.4-1.2 0-2.6 6.2-2.5 11.5.5 30 9.9 47.4 31 57.5 4.7 2.2 8.7 3.9 8.9 3.7.2-.2-2.9-2.7-7-5.5-8.5-5.9-13.1-10.9-15.8-16.8-2.1-4.8-2.8-14.7-1.6-21.4.5-2.5.9-5.2 1-6 0-.8.5-2.1 1.1-2.8.5-.7.7-1.5.4-1.9-.4-.3 0-1.5.8-2.7.8-1.1 1.5-2.8 1.5-3.7 0-2.1 2.9-7.9 4-7.9.4 0 1.1-.7 1.4-1.6.3-.8.2-1.2-.4-.9-.6.3-1 .2-1-.4 0-1.2-3.2-.2-4.2 1.3-.5.8-.8.7-.8-.1 0-2.9 11-8.8 18.5-9.8 3.9-.5 13.4 2.9 17.4 6.3 1.8 1.5 3.4 3.8 3.6 5.2.2 1.4 1.1 4.9 2 7.9.9 2.9 1.7 7.5 1.8 10.2.1 2.7.6 5 1.2 5.2.5.1.8-2.2.6-5.3-.2-3.9.1-5.2.8-4.5 1.2 1.2 1.5 12.5.6 23.5-1 11.2-5.5 24.3-10.3 29.8-1.1 1.2-3 3.7-4.3 5.6-1.2 1.8-4.5 4.5-7.2 6-4.7 2.5-5 2.5-6.3.9-.7-1-1.4-2.1-1.4-2.5 0-1-9 0-10.5 1.2-.8.6-3.8 1.4-6.7 1.7-5.9.6-6.9 1-4.9 2.2.7.5 2.8.4 4.7-.2 2.1-.6 4.1-.7 5.4-.1 2.7 1.2 1.2 3.2-3 4-2.4.5-3.1.4-2.6-.4.5-.9-.6-1-3.9-.5-3.8.5-5.1.2-7.5-1.5-1.6-1.2-4.7-2.4-6.9-2.8-2.2-.3-4.2-1.3-4.5-2.1-.3-.8-1-1.2-1.5-.9-1.5.9-6.2-1.6-5.7-3 .3-.7-2.4-4-6-7.4-3.5-3.4-6.4-6.4-6.4-6.7 0-.3-1.4-3.4-3.1-6.9-2.6-5.6-4-11.9-4.2-19.9-.1-1.1.3-4.9.7-8.5.4-3.6.7-6.5.6-6.5-.1 0 1.1-3.4 2.5-7.5 4-11 14.6-31.2 16.1-30.6.8.3 1.1 0 .8-.9-.6-1.5 2.5-7.7 5.7-11.5 1.1-1.4 1.8-1.8 1.4-1-.4.8.4.1 1.9-1.5 1.4-1.7 2.3-3.6 2.1-4.3-.3-.7.6-1.7 1.9-2.3 1.4-.7 2.6-2.3 3-4 .3-1.6 1.1-2.9 1.8-2.9 1.1 0 4.4-4.2 10.6-13.5 1.3-1.9 5.6-5.1 4.7-3.5-2.1 3.8-8.9 13-9.6 13-.4 0-1.7 2-2.9 4.5s-2.6 4.5-3.1 4.5c-.6 0-.8.4-.4.9.3.6-.4 1.5-1.5 2.1-1.1.6-1.8 1.5-1.5 2 .3.5-.3 1.7-1.5 2.7-1.1 1-2 2.4-2 3.2 0 .8-.3 1.1-.7.8-.8-.9-4.5 5.2-3.8 6.3.3.5-.3 2.7-1.5 4.9-3.3 6.6-2.2 7.1 1.3.6 3.3-5.9 16.4-26.5 17.6-27.5 1-.8 8.1-11.8 13.3-20.5 2.7-4.4 5.2-8.7 5.8-9.5 3.1-5 7.1-14.4 6.6-15.6-.3-.7 0-1.3.5-1.1 2.9.6 7.7-21.4 7.4-33-.3-8.7-1.4-13-5.1-20.4-2.1-4.3-5.4-8.1-5.4-6.3zm-4.1 73.6c-.9 1.6-1.4 1.9-1.7.9-.2-.7.2-1.7.9-2.2 2-1.3 2.1-1.1.8 1.3zm-2.8 5.1c-1 .9-1.1.8-.5-.6.3-1 .9-1.5 1.2-1.2.3.3 0 1.1-.7 1.8z"/><path d="M265 80c0 .5.5 1 1.1 1 .5 0 .7-.5.4-1-.3-.6-.8-1-1.1-1-.2 0-.4.4-.4 1zm44 15.3c0 .9 4.3 13.6 5.8 17.2 3.4 8.1 9.6 19.3 16.9 30.5 13.9 21.1 18.5 30.7 21.9 45.1 1.1 4.5 1.2 19.3.2 26.3-.9 6.8-4.5 20.2-6.9 26.1-.7 1.6-1.3 3.6-1.5 4.2-.4 2.2-8.4 16.6-11.5 20.8-1.7 2.2-5.5 7.4-8.5 11.5-3.1 4.1-6.8 8.8-8.3 10.5-1.4 1.6-4.4 5.2-6.6 8-2.2 2.7-4.2 5.2-4.5 5.5-5.9 5.5-19.6 30.4-21.9 39.5-.5 2.2-1.9 7.4-3.1 11.5-2.1 7.7-4.1 21-3.1 21 .3 0 .7 5.5.9 12.2.2 9.5.6 13.1 2.1 16 1.2 2.6 1.5 4 .7 4.8-.7.7-.7 1 .1 1 .7 0 1.2.8 1.2 1.7-.1 2.9 1.3 9.6 2.6 12.6 1 2.5 1.3 1.2 1.9-10 1.3-23.1 3.4-35.2 5.7-33.8.4.3 1.2-.9 1.7-2.7 3.1-11.2 14.8-33.9 21.4-41.6 1.5-1.8 2.8-3.7 2.8-4.1 0-.5 3.1-4 6.8-7.7 14.5-14.8 31-34.7 38.7-46.9 8.2-13 15.4-30.4 17-41 .4-2.2 1-5.7 1.5-7.7 1.1-5 .5-25.9-.9-33.8-.7-3.6-1.9-8.8-2.9-11.5-.9-2.8-1.7-5.2-1.7-5.5-.2-1.2-6.9-13.7-8.9-16.4-4-5.9-14.5-18.1-17.8-21-8.4-7.2-21.7-19.6-26.5-24.7-5.7-6-13.3-15.7-13.3-17.1 0-.4-.4-.8-1-.8-.5 0-1 .2-1 .3zm-83.3 60.4c-.4.3-.7 1.1-.7 1.7 0 .6.5.5 1.2-.2.6-.6.9-1.4.7-1.7-.3-.3-.9-.2-1.2.2zm-7.7 13.5c-1.2 2.2-1.2 2.2.6.6 1-1 1.5-2 1.2-2.4-.4-.3-1.2.5-1.8 1.8zm3.6 3.3c-.3.8-.1 1.5.3 1.5.5 0 1.1-.7 1.5-1.5.3-.8.1-1.5-.3-1.5-.5 0-1.1.7-1.5 1.5zm38.3 4.2c-.6.7-.7 1.3-.2 1.3.5 0 1.7-.6 2.7-1.3 1.6-1.2 1.7-1.4.2-1.4-.9 0-2.1.6-2.7 1.4zm3.1 1.3c-.8.5-1 1-.5 1 .6 0 1.7-.5 2.5-1s1.1-1 .5-1c-.5 0-1.7.5-2.5 1zm25.7 8.1c.4 1.3.8 1.8 1.1 1 .2-.7-.1-1.8-.6-2.3-.8-.8-.9-.4-.5 1.3zm-79.2-.1c-.3.5.1 1 1 1s1.3-.5 1-1c-.3-.6-.8-1-1-1-.2 0-.7.4-1 1zm82.5 13.3c0 1.4.4 2.8.9 3.1.5.4.8-.5.6-1.9-.3-3.5-1.5-4.4-1.5-1.2zm.7 10.4c-.4.3-.7 1.8-.7 3.1 0 3.1.7 2.6 1.4-1.1.5-2.8.4-3.1-.7-2z"/><path d="M295.4 214.1c-.1 2.2.1 2.7.7 1.8 1.1-1.7 1.2-4.9.1-4.9-.4 0-.8 1.4-.8 3.1zm-3.8 6.6c-.6 1.4-.5 1.5.5.6.7-.7 1-1.5.7-1.8-.3-.3-.9.2-1.2 1.2zm-74.3 29.4c1.8 2.1 3.4 3.3 3.6 2.7.2-.6-.4-1.7-1.3-2.3-.9-.7-1.6-1.7-1.6-2.2 0-.6-.9-1.3-2-1.6-1.6-.4-1.4.2 1.3 3.4zM282 254c-.8.5-1.2 1.2-.9 1.5.4.3 1.2-.1 1.9-1 1.4-1.7 1.1-1.9-1-.5zm-9.5 3c-1.6 1.1-2.4 2-1.7 2h1.7c.3 0 .5-.3.4-.6 0-.3.8-1.2 1.8-2 2.7-2 1.2-1.7-2.2.6zm-41.5 2.4c0 .9 3 1.4 3.5.6.4-.6-.3-1-1.4-1-1.2 0-2.1.2-2.1.4zm10.5 3.6c.3.5 1 1 1.6 1 .5 0 .9-.5.9-1 0-.6-.7-1-1.6-1-.8 0-1.2.4-.9 1zm171 20c-2.2.3-4.5.9-5.2 1.3-.6.4-1.3.1-1.6-.5-.3-1-.8-1-2.1.1-1.1.9-3.5 1.4-6.6 1.2-2.7-.1-5.1.2-5.5.9-.4.6-1.6.8-2.7.5-1.2-.4-2.7 0-3.8 1-1 .9-2.3 1.4-2.9 1.1-.6-.4-2.2.1-3.7 1.1-1.5.9-3.4 1.8-4.3 2-3.3.5-17.9 8.8-24.1 13.8-13.7 11.1-26.8 26.8-36.7 44.3-3 5.4-4.2 9.5-2.5 8.9.7-.2 1.2.6 1.2 2.3 0 .5-.6.7-1.4.4-2.2-.8-4.2 3.4-2.3 4.7.5.4.1 1.8-.8 3.3-1 1.5-1.9 4-2.1 5.6-.2 1.6-1.3 5.9-2.5 9.5-1.1 3.5-2.2 8.3-2.4 10.4-.2 2.2-1 6.1-1.9 8.8-.9 2.6-1.9 8.2-2.4 12.4-.7 6.8-.6 7.8 1 8.8 1.4.9 1.8.8 1.8-.3 0-.7.7-2 1.7-2.7.9-.8 2.6-3.4 3.7-5.9 2.7-5.7 13.6-21.7 18.6-27.2 2.2-2.3 3.7-4.5 3.4-5-.3-.4.2-.8 1-.8.9 0 1.6-.5 1.6-1.1 0-.6.9-2.3 2-3.9 1.9-2.7 1.9-2.8.1-3.3-1-.2-2.6 0-3.5.5-2.8 1.6-1.8.1 4.4-6.8 3.3-3.6 6-7.3 6-8.1 0-.8.5-1.1 1.1-.8 1.1.7 4.6-2.6 9.3-8.8 1.6-2 3.4-3.6 4-3.5 1.1.3 7.2-3.6 12.3-7.8 2.3-1.8 2.4-2.1.9-2.7-.9-.4-1.5-.3-1.2.2.3.4-.6 1.3-1.9 1.9-3.5 1.6-4-.2-.7-2.4 8.1-5.3 28.2-15.2 28.2-13.9 0 .3 1.2-.1 2.8-.7 3.5-1.4 14.3-2.1 12.2-.8-1.3.8-1.2 1 .3 1 .9 0 1.7.5 1.7 1.1 0 .5-.5.7-1.2.3-.8-.5-.9-.2-.5 1 .4 1 .7 2 .7 2.2 0 .2.8.4 1.8.4s2.3.5 2.8 1c.7.7 2.1.5 4.4-.6 3.3-1.7 3.3-1.7 1.1-2.6-1.4-.5-2.1-1.4-1.8-2.2.3-.8.1-1.7-.6-2-.7-.2-.2-.5 1.1-.5 1.3-.1 2 .3 1.7.9-.3.6.1.7.9.4.9-.3 1.6-.2 1.6.4 0 .5 1.4.8 3.1.6 2.6-.3 2.9-.1 2 1-.6.7-.9 2.4-.7 3.7.7 4.4-8.3 17.8-20 29.8-4.9 4.9-7.7 7.1-8.6 6.5-.7-.4-1-.3-.5.1.4.5-.5 2.1-2 3.7-2.6 2.7-5.1 3.9-3.8 1.8.4-.6-.5-.5-2 .2-1.6.7-2.4 1.7-2 2.6.3 1 0 1.2-1 .9-.8-.4-2 .2-2.7 1.1-.7.9-1.8 1.8-2.5 1.9-.6.2-3.1 1.6-5.5 3.2s-4.5 2.5-4.6 2c-.5-1.3-10.1 4.1-9.8 5.5.2.6.1.7-.2.3-.2-.4-2.3.3-4.5 1.6-5.2 3-8 4-7.2 2.7.3-.6 1.1-1 1.7-1 1.1 0 8.5-4.5 19.3-11.7 2.8-1.8 5.8-3.3 6.9-3.3 1 0 2-.9 2.3-2.1.3-1.1 1.1-1.8 1.9-1.5.8.3 1.1 0 .8-.9-.3-.7.1-1.2.8-1.2.7.1 1.4-.3 1.6-.8.2-.6 1.7-1.7 3.5-2.5 1.7-.8 3.3-2.4 3.6-3.5.2-1.1 1.1-2.5 2-3.1.9-.7 1.2-1.6.8-2-.4-.5-1.1-.4-1.5.2-1 1.4-19.9 16.4-20.7 16.4-.4 0-2.1 1.1-3.7 2.6-4.1 3.4-24.4 15.3-34.3 20.1-4.4 2.1-8.2 4.1-8.5 4.4-.3.4-1.5.9-2.7 1.3-1.1.4-2.4 1.4-2.8 2.4-.5 1.4-.4 1.5.6.4 1.5-1.4 2.9-1.6 2.9-.3 0 .5-.9 1.2-1.9 1.6-1.2.3-1.8 1.2-1.5 2 .4 1.1 2.5.7 9.9-2 6.2-2.3 9.2-3 8.9-2.1-.3.7.2 1.6 1.1 2 1 .4 1.4.2.9-.6-.5-.7.1-.9 2-.4 1.5.4 2.6.2 2.6-.3 0-.6 1.9-1.6 4.3-2.3 5.2-1.5 7.7-1.8 7.7-.8 0 .4.9 1 2 1.3 1.3.3 2 0 2-.9 0-.8.6-1.1 1.5-.8 1.9.8 1.9 0-.1-2-1.4-1.5-1.4-1.6.1-1.6.9 0 1.9.9 2.2 2 .4 1.6.9 1.8 2.4.9 1.1-.5 1.7-1.4 1.4-2-.4-.5 0-.9.9-.9.8 0 1.6.5 1.8 1.2.3.8 1.9.6 5.4-.8 2.7-1 5.5-1.7 6.2-1.6.7.2 2.9-1 5-2.6 2-1.6 6.9-4 10.7-5.3 8.4-2.8 7.6-2.3 8-4.6.1-1 .9-1.6 1.6-1.4 4.7 1.2 9.9-1.6 19.2-10.3 2.7-2.5 5.4-4.3 6.1-4 2.3.9 22.6-22.4 22.6-26 0-.8.9-3 1.9-4.8 3.7-6.2 5-12 4.8-20.8-.1-5.4-.7-9.1-1.5-10-.7-.8-2.6-3.8-4.2-6.7-2.9-5.1-6.4-7.4-16.5-11.3-1.7-.7-2.4-1.4-1.9-2.2.6-1 .5-1-.8-.1-.8.7-1.7 1.1-1.9.9-.2-.2-2.9-.7-5.9-1-9-1-12.3-1.8-11-2.6 1.9-1.2-.2-1.7-4.5-1zM345 392.4c0 .2-.7.7-1.6 1-.8.3-1.2.2-.9-.4.6-1 2.5-1.4 2.5-.6zM150.9 288.1c-2.7 1.5-7.7 1.9-10.3.9-1.9-.7-2.9-.6-4 .5-.8.8-3.3 1.5-5.5 1.5-3.7 0-4.6.6-11.7 8-8.4 8.7-10.4 11.8-10.4 16.1 0 1.5-.4 3.1-1 3.4-1.5.9-1.2 12.7.4 15 .7 1.1 2 4.3 2.8 7 .8 2.8 3.3 7.9 5.6 11.4 2.3 3.4 4.2 6.4 4.2 6.7 0 .5 2.6 3.6 6.3 7.5 1.5 1.6 2.7 3.3 2.7 3.9 0 1.1 15.3 16.1 19.1 18.8 1.2.8 3.2 1.7 4.3 1.8 1.2.1 2.3.3 2.6.3.3.1 3 2 6 4.2 6 4.6 14.9 9.1 16.2 8.3 1.2-.8 5.2-1.4 4.5-.7-1.1 1.1 1.3 4.2 2.8 3.7.9-.4 2.2-.1 3 .6.8.7 2.1 1 2.9.7.8-.3 4.5 1.3 8.2 3.5 3.8 2.3 8 4 9.3 4 1.2-.1 2.8.1 3.5.5.6.4 1.6.8 2.1 1 5 1.1 5.8 1.2 4.8.7-.7-.3-1.3-1-1.3-1.5 0-1.2 3 .1 5.3 2.4 2 2 2.1 2 2.8.1.3-1 .4-2.3.2-2.7-.3-.5.5-.4 1.7.3 1.8 1 2 1.4.9 2.1-1.2.7-1.1 1.1.4 2.6.9.9 1.7 1.2 1.7.6s.8-1 1.8-.8c.9.1 2.5-.2 3.4-.6 1.1-.6 3.5-.2 7 1.1 5.8 2.2 12.4 2.7 11.2.9-.4-.8 0-.8 1.5 0 1.1.7 2.1.9 2.1.7 0-.3 1.8.1 4 .9s4.4 1.5 4.8 1.5c.4 0 1.7.3 3 .7 1.3.3 2.9 0 3.5-.6.9-.9.6-1.3-1.1-1.7-1.2-.4-2.2-1.1-2.2-1.6 0-.6.7-.7 1.6-.4.8.3 1.2.2.9-.4-.6-1-7.4-4.2-14.5-7-5.9-2.3-27.2-13.7-34.7-18.6-2.9-1.9-7.9-5.1-11-7.1-3.2-2.1-8.9-5.9-12.6-8.6-6.8-4.8-9.9-5.8-5.7-1.9 1.2 1.1 1.9 2.5 1.6 3-.3.5 1.7 1.9 4.4 3.1 2.8 1.2 5 2.6 5 3.2 0 .6.5.7 1 .4.6-.3 1 .2 1 1.2 0 1.4.2 1.5.9.4.6-.9 1.1-1 1.5-.2.4.6.4 1.1 0 1.1-.3 0-.1.7.6 1.5s2.1 1.5 3.1 1.5c1.8 0 11.9 5.7 11.9 6.6 0 .3-.4.3-.9-.1-.5-.3-2.3-.7-4-.9-1.7-.2-4.9-1.5-7.1-3-2.3-1.5-4.5-2.4-5-2.1-.5.3-1.5-.3-2.1-1.3-.8-1.2-2-1.8-3.3-1.5-1.3.3-1.7.1-1-.4.8-.5.4-1.4-1.4-2.7-2.2-1.7-2.5-1.7-1.9-.3 1.1 2.9-1.6 1.3-16.3-10.2-4.1-3.2-8.9-7.1-10.5-8.7-5.1-4.9-15.9-17.7-19-22.4-1.7-2.5-3.3-4.7-3.6-5-.3-.3-.9-1.7-1.3-3.3-.3-1.5-1.3-2.7-2.1-2.7s-1.5-.7-1.5-1.6c0-.8.4-1.3.9-1 1.1.7.9-1.3-.2-3.2-.5-.7-.3-1.2.7-1.2.9 0 1.5-.3 1.5-.8-.3-1.9.2-2.2 1.5-.9 1 .9 1.3 2.9 1.1 5.8-.3 2.4-.2 3.6.1 2.6.3-.9 1.2-1.7 2-1.7s1.4-.5 1.4-1c0-.6.7-1 1.5-1s1.5-.5 1.5-1.1c0-.6-.7-.9-1.5-.5-1.6.6-1.6.5-2-3.2-.3-3 1.4-3.3 15-2.8 12.7.5 11.5.3 22.7 2.7 12.8 2.8 17.5 4.9 10.7 4.9-1.7 0-2.8-.4-2.4-1 .3-.6.2-1-.4-1-1.9 0-2 1.7 0 3.3 1 .9 1.9 1.2 1.9.7 0-.6 1.1-.3 2.5.6 1.4.9 2.5 1.3 2.5 1 0-.4 1.4.1 3.1.9 1.7.9 3.7 1.4 4.5 1.1.8-.3 4.2 1.4 7.5 3.9 3.4 2.5 6.8 4.5 7.5 4.5 1.5 0 15.7 13 15 13.7-.2.3-1.4 0-2.5-.7-1.5-.8-2.1-.8-2.1 0 0 .6-.5.8-1 .5-.6-.4-.1 1.2 1.1 3.4 1.1 2.3 2.5 3.8 3 3.5.5-.3.9.4.9 1.5s.6 2.4 1.3 2.8c3 1.9 12.9 20.9 14.2 27.3 1.1 5.5 2.7 10 3.5 10 .6 0 1 1.1 1 2.5 0 2.1.3 2.4 1.7 1.7 2.2-1.3 2.5-4.3 2.5-21.7-.1-16.2-2-29.9-5.3-37.4-1.6-3.5-1.7-4.2-.5-3.8 1.1.4 1.3.1.9-1.1-1-2.8-2.4-4.1-3.7-3.6-1.9.7-2.8-2.4-1.1-3.3 1.2-.7 1.2-1.3-.2-4-2.3-4.9-16.6-19.2-26.3-26.3-5.5-4.1-20-11.7-27.6-14.6-8.3-3-7.9-2.9-22.7-5.4-6.5-1.1-12.2-2.2-12.7-2.5-.5-.3-1.1-.1-1.5.5-.4.6-1.2.7-1.8.3-1.9-1.2-4.6-1.3-5.2-.3-.4.6-1.1.8-1.6.5-1.7-1.1-4.5-1.3-6-.4zM208 333c0 .5-.7.7-1.5.4-.8-.4-1.2-1-.9-1.5.6-1.1 2.4-.2 2.4 1.1zm26.1 71.2c2.5 1.5 5.1 2.8 5.7 2.8.6 0 1.4.4 1.7 1 .7 1.1-2.2.1-7-2.4-2.2-1.2-3.1-1.2-3.7-.3-.5.8-.8.7-.8-.4 0-.9-1-2.4-2.2-3.3-3.7-2.6.8-.8 6.3 2.6zM121 295.1c0 .5.5.7 1 .4.6-.3 1-.8 1-1.1 0-.2-.4-.4-1-.4-.5 0-1 .5-1 1.1z"/><path d="M395 323c0 .5.5 1 1.1 1 .5 0 .7-.5.4-1-.3-.6-.8-1-1.1-1-.2 0-.4.4-.4 1zm-1.5 3c-.3.5-.1 1 .4 1 .6 0 1.1-.5 1.1-1 0-.6-.2-1-.4-1-.3 0-.8.4-1.1 1zm8 1c.3.5.8 1 1.1 1 .2 0 .4-.5.4-1 0-.6-.5-1-1.1-1-.5 0-.7.4-.4 1zm17.5 0c0 .5.5 1 1 1 .6 0 1-.5 1-1 0-.6-.4-1-1-1-.5 0-1 .4-1 1zm-230.8 2.5c1 1.1 4.8 1.4 4.8.4 0-.5-1.2-.9-2.7-.9-1.4 0-2.4.2-2.1.5zm-3.2 3.6c0 .5.5.7 1 .4.6-.3 1-.8 1-1.1 0-.2-.4-.4-1-.4-.5 0-1 .5-1 1.1zm5 .9c1.9 1.3 3 1.3 3 0 0-.6-1-1-2.2-1-1.9 0-2 .2-.8 1zm5.6 1c1.4 1.4 5.4 2.1 5.4 1.1 0-.5-1-1.1-2.2-1.5-3.4-.9-4.3-.7-3.2.4zm173.9.1c-1.1 1.7-.2 1.8 1.9.3 1.7-1.2 1.7-1.4.4-1.4-.9 0-2 .5-2.3 1.1zm-162 3.9c.3.5 1.4 1 2.3 1 1.5 0 1.5-.2.2-1-2-1.3-3.3-1.3-2.5 0zm163 0c-.3.5-.2 1 .4 1 .5 0 1.3-.5 1.6-1 .3-.6.2-1-.4-1-.5 0-1.3.4-1.6 1zm-4.2 2c-1.3.5-2.3 1.4-2.3 2 0 1.6 1.5 1.2 3.5-1s2-2.3-1.2-1zm-10.8 8c-.3.5-.2 1 .4 1 .5 0 1.3-.5 1.6-1 .3-.6.2-1-.4-1-.5 0-1.3.4-1.6 1zm-121 5.6c.9.9 1.8 1.4 2.1 1.1.9-.9-.6-2.7-2.2-2.7-1.3 0-1.3.2.1 1.6zm160-.5c-1.1 1.7.1 2.1 1.5.4.8-.9.8-1.5.2-1.5-.6 0-1.4.5-1.7 1.1zm-163 1.9c.3.5 1.1 1 1.6 1 .6 0 .7-.5.4-1-.3-.6-1.1-1-1.6-1-.6 0-.7.4-.4 1zm165.5 4c-.9.6-1 1-.3 1 .6 0 1.5-.5 1.8-1 .8-1.2.4-1.2-1.5 0zm-6.5 6c.3.5.8 1 1.1 1 .2 0 .4-.5.4-1 0-.6-.5-1-1.1-1-.5 0-.7.4-.4 1zm-58 4.4c-1.1.8-1.4 1.5-.8 1.9.6.4 1.6 0 2.3-.8 1.7-2.1.8-2.8-1.5-1.1zm3.5 1.1c-.7.9-1 1.8-.7 2.1.3.3 1-.4 1.7-1.5 1.3-2.5.8-2.7-1-.6zm-148 1.4c1.4 1.1 2.6 1.8 2.9 1.6.5-.6-2.3-3-3.9-3.3-.8-.1-.4.6 1 1.7zm-2 6.1c0 .5.5 1 1.1 1 .5 0 .7-.5.4-1-.3-.6-.8-1-1.1-1-.2 0-.4.4-.4 1zm185.7 27.6c-.1.1-2.9.4-6.2.8-3.3.3-7.3.8-9 1.1-1.6.3-5.7 1-9 1.6-3.3.6-6.4 1.4-7 1.7-.5.4-1.9.8-3 .9-4.4.7-27.9 10.3-35.1 14.4-6.7 3.9-7.3 4.5-5.3 5 1.3.4 2 .8 1.4.8-.5.1-2 .9-3.3 1.9l-2.3 1.8 2.5 1.2c1.9.8 2.5.8 2.3 0-.1-.6 3.2-2.5 7.3-4.3 9.4-4 14.2-5.6 13.4-4.4-.5.9 2 1.4 4.1.9.6-.2 1.9-.4 3-.5 1.1-.1 2.8-.5 3.7-.9.9-.4 2.1-.5 2.7-.2.5.3 1.1.1 1.3-.5.4-1.3 9.8-2.1 11.3-.9.6.4 2.1 1.1 3.5 1.4 1.9.6 2.1.5 1-.3-.9-.7-1-1.1-.3-1.1.6 0 1.5.5 1.8 1 1 1.6 2.7.1 2.1-1.8-.4-1.3.1-1.7 2.1-1.9 1.4 0 2.2.2 1.7.5-.5.4-1 1.5-1.2 2.4-.4 2.2 3 2.4 4.7.4 1.1-1.3 1.5-1.2 3.3.6 1.1 1.1 2.3 1.7 2.6 1.3.4-.3 0-1-.8-1.5-1.3-.8-1.2-1 .3-1 .9 0 1.7.6 1.7 1.2 0 .8 1.5 1.4 3.7 1.6 2 .1 4.3.8 5 1.4.8.6 4.2 1.3 7.6 1.4 9.8.5 15.2 1.3 15.5 2.4.2.5 1.7 1 3.2 1 1.6 0 3.2.4 3.5 1 .3.5 2.1.9 4 .7 1.8-.1 3.1-.5 2.8-1-.2-.4 0-.7.6-.7.5 0 1.2.9 1.6 1.9.7 2.3 6.3 4.2 19.4 6.7 6.1 1.1 10.1 2.4 11.4 3.7 1 1 4.8 3 8.5 4.3 11.4 4.3 24.5 11.1 28.5 14.9 2.1 1.9 4.2 3.5 4.8 3.5.5 0 .9.3.9.7 0 .5 1.9 3 4.2 5.7 2.3 2.6 4.3 5.9 4.4 7.2.3 2.5-1 3.2-2.1 1.4-.4-.7-1.1-.7-1.8-.2-1.8 1.4-56.9.2-64.9-1.4-1.3-.2-5.2-.6-8.8-.9-6.8-.5-13.1-1.3-17.1-2-1.3-.3-7.1-1.4-12.9-2.5-12.8-2.4-15.4-2.5-14.6-.5.8 2.2-3.1 1.9-4.3-.4-1.4-2.5-4.8-3.3-6.5-1.5-1.2 1.2-1.8 1.2-4.3-.1-1.5-.8-4.5-1.5-6.7-1.5-2.1 0-8.4-1.3-14-2.9-5.5-1.6-12.6-3.4-15.6-4.1-3-.7-9.5-3.2-14.5-5.5-9.9-4.6-15.6-7-16.7-7-1.9 0-1.7-1.5.6-3 2.5-1.7 3.5-3.5 1.8-3.5-.5 0-1.7.8-2.8 1.8-1.1 1-3.2 2.2-4.8 2.6-2.3.6-2.6.9-1.6 2.1 1 1.2.9 1.5-.3 1.5-.9 0-3.3 2.1-5.4 4.7-2.1 2.7-4.5 5.4-5.3 6-2.1 1.8-8.3 3.4-9.2 2.5-1.1-1.1 4.3-6.1 7.1-6.7 2.7-.5 5.3-2.4 4.6-3.5-.7-1.1 7.2-8.1 11.9-10.4 2.6-1.3 4-2.7 4-3.8-.1-1 .2-1.6.6-1.3.4.2 1.6-.5 2.6-1.7 1.1-1.2 1.3-1.8.5-1.3-1.1.6-1.3.4-.8-.8.7-1.9-1-2.6-7.5-2.8-4.8-.2-9.3-1.8-5.3-1.9 3.5-.1-.5-1.8-6-2.5-2.8-.4-5.7-.8-6.5-.9-.8-.2-4.2-.6-7.5-1s-7.8-1.1-10-1.6-5.8-1.2-8-1.5c-2.2-.3-4.7-.7-5.5-1-.8-.2-4.8-.6-8.9-1-4-.3-7.7-.8-8.1-1-1.5-.9-20.9-1.9-36-1.9-16.4.1-30.3.9-41 2.4-8.8 1.3-9.9 1.3-8-.1 1.1-.7.4-.9-2.5-.5-2.2.3-4.2.5-4.5.6-.3 0 .2.5 1 1 1.3.8 1.3 1-.2 1-.9 0-2-.5-2.3-1-.4-.7-1.8-.4-4 .9-1.9 1.1-3.7 1.5-4.2 1-.8-.8-12.7 2-15.4 3.6-.6.4-1.5.2-1.9-.5-.6-1-2.2-.8-7.2 1-3.4 1.3-6.8 2.9-7.4 3.6-.6.8-1.4 1.1-1.7.8-.3-.4-3.6.8-7.3 2.5-9.3 4.4-9.4 3.8-.2-.9 8.9-4.6 34.2-13.4 34.6-12.1.4 1.1 6.2-1 6.2-2.2 0-.5 1.1-.6 2.5-.3 1.6.4 2.5.2 2.5-.5 0-.6.6-.9 1.4-.6.8.3 1.7.3 2.1-.1.4-.4 1.9-.8 3.3-.8 1.5-.1 2.9-.3 3.2-.4.3-.1 2-.1 3.8 0 2.1.1 3.8-.4 4.6-1.5 1.2-1.6 3.2-2.3 7.4-2.4 1.3-.1 2.1-.5 1.7-1-.3-.6-1.5-.8-2.8-.5-1.2.2-4.2.7-6.7.9-2.5.3-6.1.8-8 1.1-1.9.3-3.6.6-3.7.6-.2-.1-1.7.4-3.5.9-3.6 1.1-6 1.7-9.9 2.4-4.2.8-20.4 6.3-29.7 10.1-12.6 5.2-23.2 11-35.2 19.1-10.9 7.4-23.1 18.1-19.1 16.8 1.2-.4 2.1-.2 2.1.4 0 1-1.4 1.5-3.3 1.2-.5-.1-.6.3-.2.9.4.6.2 1.7-.4 2.4-.9 1-.7 1.3.6 1.2 1 0 5.3-2.8 9.6-6s8-5.6 8.4-5.3c.3.3 1.4-.4 2.4-1.6 1.1-1.3 1.8-1.7 1.9-.9 0 2 5.7.5 11-2.9 2.4-1.6 5-2.7 5.7-2.5.7.3 1.3.2 1.3-.3s1.9-.9 4.3-.8c2.4 0 4.9-.3 5.7-.8 1-.6 1.2-.4.7 1.1-.6 1.7-.6 1.7.5.3.7-.9 1.9-1.4 2.6-1.2.6.3 1.2-.2 1.2-1.1 0-.9-.5-1.6-1.2-1.6-.9 0-.9-.3-.1-1.1 1.3-1.3 3.3-.4 3.3 1.7 0 1.9 1.3 1.8 4.3-.6 2.3-1.8 2.7-1.9 3.5-.5.6 1.2 1.4 1.4 3.4.6 1.8-.7 2.9-.6 3.8.2 1 .9 1.1.9.5-.2-.6-1.1-.2-1.3 1.8-.9 1.5.3 2.4.1 2.1-.3-.3-.5.1-.9 1-.9.8 0 1.6.4 1.8 1 .2.6 2.9.2 6.7-1 3.6-1 8.3-1.9 10.5-1.9 7.4 0 11.4.4 12.2 1.2.4.4 1.8 0 3.1-.8 1.7-1.2 2.3-1.2 2.3-.3 0 1 .2 1 .9-.1s1-1.1 1.7.2c1.1 1.9 6 2.6 20.7 2.9 8.5.2 12 .7 12.6 1.6.8 1.3 6.7 2.3 21.8 3.7 3.4.3 7.5 1 9 1.6l2.8 1-2.5 1.9c-1.6 1.2-3.4 1.7-5.2 1.3-1.7-.3-2.8-.1-2.8.6 0 .6-.8 1.1-1.8 1.1s-2.3.5-2.9 1.1c-2 2-20.7 9-23.6 8.9-.4-.1-2 .6-3.5 1.4-3.1 1.7-23.9 8.1-29.2 8.9-4.1.7-6.8 1.4-13.1 3.3-5.8 1.8-7.9 2.3-15.9 3.5-5.7.8-16.1 3-21.3 4.6-1.1.3-1.6 1.1-1.3 1.9.7 1.9-2 2.9-3.9 1.4-.9-.7-2.6-.9-4.6-.5-2.3.5-2.8 1-1.8 1.6.8.5 1 .9.4 1-.5.1-1.9.3-3 .4-6.1.8-8.9 1.5-9.5 2.5-.4.7-1 1.1-1.4 1-1.2-.2-8.1 1.2-18.5 3.7-11.7 2.8-16.9 3.4-17.7 2.2-.3-.5-1.5-.9-2.8-.9-2.8 0-8.4-4.1-10.9-8-2.1-3.3-2.5-12.6-.7-15.9.6-1.2.8-2.1.4-2.1s.3-1.1 1.5-2.4c1.6-1.7 2.1-3.1 1.6-4.6-.6-2-1-1.9-5.2 2.5-5.1 5.4-7.4 10.1-7.5 15.5-.1 11.2 4.4 18.4 15.3 24.4 6.3 3.5 15.9 5.3 32.4 6.1 7.7.3 15.5.8 17.3.9 1.8.2 3.5-.1 3.8-.6.3-.5 1.2-.4 1.9.2.9.8 2 .8 3.2.1 1.1-.5 2.5-.6 3.3-.1 1.7 1.1 5.5-.3 5.5-2.1 0-.8-1.5-1.9-3.5-2.6-3.2-1-2.5-1.2 7-1.3 12.1-.2 15.9-.5 19.4-1.4 1.4-.3 2.7-.2 3 .3.8 1.2 8.4.6 17.7-1.3 8.8-1.9 10.2-2 9.4-.5-.5.7.4.9 2.7.5 2.7-.4 10.7-1.4 16.3-2 .6-.1 2.6-.5 4.5-1 2.9-.7 3.2-1 1.5-1.6-1.1-.4-3.4-.2-5.2.3-1.8.6-3.6.7-4 .3-1.2-1.2 1.7-2.4 5.3-2.2 1.9.1 3.4-.2 3.4-.5 0-.4 1.9-1 4.3-1.4 2.3-.4 7.4-1.6 11.2-2.7 3.9-1 7.7-2.1 8.7-2.3.9-.2 5.8-1.9 11-3.8 11.7-4.4 16.4-5.5 15.3-3.6-.5.8-.4 1.1.1.6.5-.5.9-1.4.9-2 0-.6 2.5-2.4 5.5-3.9s6.4-3.3 7.5-4c1.1-.7 2.8-1.3 3.7-1.5.9-.1 3.3-1.2 5.3-2.3 2-1.1 3.4-1.6 3-1-.9 1.5 1.7 1.2 3.9-.5 3.2-2.4 4-1.7 1 .8l-2.6 2.3 2.3-.1c2.4-.1 15.8-6.3 19.2-8.9.9-.7 1.7-1.7 1.7-2.2 0-1.5 14.1-15.4 15.6-15.4.7 0 1.8.9 2.4 2 .9 1.7 7.7 7.1 13.2 10.5.9.5 4.6 3.1 8.2 5.7 6.1 4.4 28.2 17.8 29.3 17.8.3 0 1.6.9 3 2s3.6 2 4.8 2c1.3 0 2.5.7 2.9 1.5.3.8 1.2 1.2 2 .9.8-.3 2.3.3 3.3 1.3 1.1 1 3.1 1.9 4.5 2 2.1.1 2.6-.3 2.5-1.9-.1-1.1-1.2-2.5-2.4-3.1-1.3-.6-2.3-1.4-2.3-1.9 0-.4 1.7-.1 3.8.8 12.1 5.4 18.1 7.6 21.9 8.1 2.4.3 4.3.9 4.3 1.3 0 1.5 10.1 4.3 23.3 6.5 2.1.3 3.5 1 3.3 1.4-.8 1.2 18.2 6 23.8 6.1 2.4 0 2.7-.2 1.6-1.5-.7-.8-1.7-1.2-2.2-.9-1.5 1-7.9-.6-7.2-1.7.6-1.1 3.9-.8 14.4 1.1 13.2 2.4 37.4 3.4 63 2.6 8-.2 13.9-.2 13.2.1-.9.3-.2 1.3 2 2.9 3 2.2 3.9 2.4 10.8 1.9 10.2-.8 11.1-1.1 14.2-4 2.3-2.1 2.6-2.9 1.8-5-.5-1.4-.7-2.5-.4-2.5.2 0 0-.9-.6-2-.6-1-1.2-3.2-1.4-4.7-.6-4.6-1.8-8.3-2.6-8.3-1.8 0-1.6 2.7.3 8 3.3 8.9 3.8 12 1.8 12-.9-.1-2.9-.8-4.6-1.6-1.6-.8-2.3-1.2-1.4-1 1.4.4 1.5-.1.8-3.2-1.1-4.8-1.1-5.4.1-4.7 1.3.8.5-4.5-.8-5.4-1.5-1.1-5-15-3.9-15.4 1.2-.4-4.5-10.9-7.5-13.9-1-1-1.8-2.8-1.8-4 0-1.2-.3-1.9-.6-1.6-1 1.1-8.2-7.3-7.7-9.1.5-1.9-10.6-13.1-13-13.1-.8 0-1.7-.6-2-1.4-.6-1.6-8.2-6.7-17.7-11.8-11-6-30.5-11.5-50.4-14.3-4.9-.7-14.4-1.6-16.8-1.6-1.1 0-1.5-.6-1.2-1.7.5-1.5.4-1.5-.5-.1-.6 1-2.1 1.5-3.8 1.3-1.5-.1-4.6-.3-6.8-.3-3-.1-3.6-.4-2.5-1.1.8-.5 1.3-1 1-1.1-4.8-.8-7-.7-6.5.1.7 1.2-1.8 1.4-2.9.2-.4-.4-2.6-.8-4.9-.9-11.4-.7-18.3-1.1-19.5-1.2-.7-.1-1-.6-.7-1.1.5-.7-1.2-.9-5.2-.5-8.4.8-11.3 1.5-11.3 2.7 0 .7-.6.6-1.5-.2-.8-.6-1.9-.9-2.5-.5-.5.3-1 .1-1-.4 0-.6 1-1.1 2.3-1.2 1.2 0 3.1-.2 4.2-.5 4.8-1 27.5-1.6 27.5-.8 0 .5 1.1 1.1 2.6 1.2 1.4.1 2.3-.2 1.9-.8-.3-.6.3-1 1.4-1 1.1 0 2.3.5 2.7 1.1.4.8.9.7 1.5-.2.8-1.2 1.1-1.1 1.9.1.9 1.3 1.1 1.3 2 0 .9-1.3 1-1.3 1 0 0 .9.3 1.1.8.5.9-1.2 3.6-1.9 2.8-.7-.3.5 1.1.9 3 1 1.9.1 3.9.4 4.5.7.5.4 1.6 0 2.3-.8.9-.9 3-1.3 5.5-1.1 2.3.1 4.1-.1 4.1-.6 0-1-7.2-1.6-26.5-2-8.2-.1-17.2-.3-19.8-.4h-5zm-21.8 5.8c-1.2 1-6.9 2.4-6.9 1.6 0-.5 1-1.1 2.3-1.3 3.1-.6 5.1-.8 4.6-.3zm15.8.2c-.3.3-1.2.4-1.9.1-.8-.3-.5-.6.6-.6 1.1-.1 1.7.2 1.3.5zm-24.4 2.1c-.7.2-1.9.2-2.5 0-.7-.3-.2-.5 1.2-.5s1.9.2 1.3.5zM365 424c0 .5-.5 1-1.1 1-.5 0-.7-.5-.4-1 .3-.6.8-1 1.1-1 .2 0 .4.4.4 1zM84.5 440c-.3.5-1.2 1-1.8 1-.7 0-.6-.4.3-1 1.9-1.2 2.3-1.2 1.5 0zm-16 5c-.3.5-1.2 1-1.8 1-.7 0-.6-.4.3-1 1.9-1.2 2.3-1.2 1.5 0zm33.2 4.6c-.3.3-1.2.4-1.9.1-.8-.3-.5-.6.6-.6 1.1-.1 1.7.2 1.3.5zm54.2 64.4c-2.2 1.4-3.4-.2-1.3-1.7 1.3-1 2-1 2.3-.2.2.6-.3 1.5-1 1.9zm272.2 2.1c.6 1.2.7 1.9.2 1.7-.4-.3-1.7-.8-2.8-1.2-1.6-.6-1.7-.9-.5-1.6 1.9-1.2 1.8-1.3 3.1 1.1zm100.5 6.2c.4.4-.5.7-2 .7s-2.5-.4-2.2-.9c.7-1 3.1-.9 4.2.2z"/><path d="M427.5 408.9l-3 .7 3.3.5c2.2.4 3.2.2 3.2-.8 0-.7-.1-1.2-.2-1.2-.2.1-1.6.4-3.3.8zm-14.7 5.8c.7.3 1.6.2 1.9-.1.4-.3-.2-.6-1.3-.5-1.1 0-1.4.3-.6.6zm-255 1.1c-4.4.5-3.3 1.8 1.2 1.4 2.2-.2 4-.5 4-.7 0-.7-2.7-1-5.2-.7zm267-.1c.6.2 1.8.2 2.5 0 .6-.3.1-.5-1.3-.5-1.4 0-1.9.2-1.2.5zm17.8.8c-.3.8-.1 1.5.4 1.5.6 0 1-.7 1-1.5s-.2-1.5-.4-1.5-.6.7-1 1.5zM173.5 421c-.3.5-.1 1 .4 1 .6 0 1.1-.5 1.1-1 0-.6-.2-1-.4-1-.3 0-.8.4-1.1 1zm-19 1.9c-.3.6.4.8 1.6.6 3-.6 3.7-1.5 1.1-1.5-1.1 0-2.3.4-2.7.9zM143 424c0 .5.5 1 1.1 1 .5 0 .7-.5.4-1-.3-.6-.8-1-1.1-1-.2 0-.4.4-.4 1zm126.5 5c-1.6.6-1.7.9-.5 1.3 2.8.9 12.1 2.7 14.1 2.7 2.1 0 2.7-1.6.7-1.8-7.3-.6-9.3-1-9-2 .2-1.4-2.3-1.5-5.3-.2zm34 9c-.3.6.1 1.3 1 1.6 1.9.8 3 0 2-1.5-.8-1.4-2.2-1.4-3-.1zm-5 6c-.3.5-.1 1 .4 1 .6 0 1.1-.5 1.1-1 0-.6-.2-1-.4-1-.3 0-.8.4-1.1 1zm216.5 1.9c1.3.9 1.2 1.1-.3 1.1-1 0-1.5.4-1.2 1 .3.5 1.3 1 2.1 1 2 0 1.4-3.2-.6-3.7-1.3-.4-1.3-.3 0 .6zm2 4.9c0 1.4 3.6 4.3 4.3 3.5.4-.3 0-1.5-1-2.5-1.7-1.9-3.3-2.4-3.3-1zm17 20.5c0 1.7 2.5 4 3.9 3.5.6-.1-.1-1.4-1.4-2.7-1.8-1.7-2.5-1.9-2.5-.8zm4.5 9.7c.3.5.8 1 1.1 1 .2 0 .4-.5.4-1 0-.6-.5-1-1.1-1-.5 0-.7.4-.4 1zm-295.1 6.5c-1 .8-1.4 1.5-.9 1.5.6 0-.1.7-1.5 1.5-1.6.9-1.9 1.4-.9 1.5.8 0 2.4-.7 3.5-1.5 1.4-1 1.5-1.4.5-1.5-1.1 0-.9-.4.5-1.5 1-.8 1.6-1.5 1.3-1.5-.3 0-1.4.7-2.5 1.5zm4 .1c-1.8 1.4-1.8 1.5.4.4 1.2-.6 2.2-1.3 2.2-1.5 0-.8-.5-.6-2.6 1.1zm295 2.6c.5 2.9 1.8 5.8 2.5 5.8 1.3 0-.3-6.3-1.6-6.7-.6-.2-1 .2-.9.9zM224.5 494c-.3.5-.2 1 .4 1 .5 0 1.3-.5 1.6-1 .3-.6.2-1-.4-1-.5 0-1.3.4-1.6 1zm5.9 2.5c-1 .8-1.4 1.4-.9 1.4.6 0 1.9-.6 2.9-1.4 1.1-.8 1.5-1.5 1-1.5-.6 0-1.9.7-3 1.5zM220 499c-1.3.8-1.2 1 .3 1 .9 0 1.7-.5 1.7-1 0-1.2-.1-1.2-2 0zm148 3.9c0 .5 1.4 1.4 3.1 2 4.2 1.4 4.8 1.4 2.4-.2-2.9-1.9-5.5-2.8-5.5-1.8zm3 4.6c3.3 1.9 4.9 1.9 2.4 0-1-.8-2.6-1.4-3.4-1.4-.9 0-.4.6 1 1.4zM177.5 511c-1.8.8-1.7.9.7.9 1.5.1 3-.4 3.3-.9.7-1.2-1.2-1.2-4 0zm211.3.7c.6.2 1.8.2 2.5 0 .6-.3.1-.5-1.3-.5-1.4 0-1.9.2-1.2.5zM186.5 513c-1.6.7-1.7.9-.3.9.9.1 2-.4 2.3-.9.7-1.1.7-1.1-2 0zm-10.8 2.2c-.7.5-.2.8 1.5.8 1.5 0 2.9-.4 3.2-.8.6-1-3.1-1-4.7 0zm-8.6.9c-5.4 1-7.7 2.8-2.9 2.3 4.9-.6 9.4-1.9 8.3-2.5-.6-.3-3-.2-5.4.2zm247.4 2.8c.2.5 1.6 1.1 3.1 1.4 1.5.2 2.2.1 1.7-.4-1.2-1.2-5.5-2-4.8-1zm-269.1 1c.5.8 5.6.3 5.6-.5 0-.2-1.4-.4-3.1-.4-1.6 0-2.8.4-2.5.9zm-48 1.3c-.8 1.3 2 1.9 4.6 1 2.4-.9 2.3-.9-.8-1.4-1.8-.3-3.5-.1-3.8.4zm34.1-.2c.3.5.8 1 1.1 1 .2 0 .4-.5.4-1 0-.6-.5-1-1.1-1-.5 0-.7.4-.4 1zm-12.7.7c.6.2 1.8.2 2.5 0 .6-.3.1-.5-1.3-.5-1.4 0-1.9.2-1.2.5zm327.7.3c-.2.3 1 .7 2.6.8 1.8.1 2.8-.2 2.5-.7-.7-1-4.5-1.1-5.1-.1zm-14.3 1.1c.9.5 3.6 1.2 6 1.4l4.3.5-3.5-1.4c-4.2-1.7-9.5-2.1-6.8-.5zm64.3-.1c-.3.5.1 1 .9 1 .9 0 1.6-.5 1.6-1 0-.6-.4-1-.9-1-.6 0-1.3.4-1.6 1zm-396.7 1.7c1.2.2 3 .2 4 0 .9-.3-.1-.5-2.3-.4-2.2 0-3 .2-1.7.4zm345.6.7c2.3 1.8 3.6 2 3.6.6 0-.6-.4-1-.9-1s-1.8-.3-2.8-.6c-1.6-.5-1.6-.4.1 1zm70.4-.7c.6.2 1.8.2 2.5 0 .6-.3.1-.5-1.3-.5-1.4 0-1.9.2-1.2.5zm-24.8.7c0 .2.7.9 1.5 1.6 1.3 1.1 1.4 1 .9-.4-.5-1.4-2.4-2.3-2.4-1.2zm-36.2 1.3c.6.2 1.8.2 2.5 0 .6-.3.1-.5-1.3-.5-1.4 0-1.9.2-1.2.5zm56.6.2c1.8.7 6.6.3 6.6-.5 0-.2-1.9-.4-4.2-.3-3.1 0-3.7.3-2.4.8zm8.4-.2c.6.2 1.8.2 2.5 0 .6-.3.1-.5-1.3-.5-1.4 0-1.9.2-1.2.5zm-19.5 1c.9.2 2.5.2 3.5 0 .9-.3.1-.5-1.8-.5-1.9 0-2.7.2-1.7.5z"/></svg>